<svg viewBox="0 0 280 60" xmlns="http://www.w3.org/2000/svg">
    <defs>
        <linearGradient id="cloudH" x1="0%" y1="0%" x2="100%" y2="0%">
            <stop offset="0%" style="stop-color:#00d4ff" />
            <stop offset="100%" style="stop-color:#0088ee" />
        </linearGradient>
        <linearGradient id="blazeH" x1="0%" y1="100%" x2="0%" y2="0%">
            <stop offset="0%" style="stop-color:#ff4500" />
            <stop offset="50%" style="stop-color:#ff6b35" />
            <stop offset="100%" style="stop-color:#ffcc00" />
        </linearGradient>
        <linearGradient id="textH" x1="0%" y1="0%" x2="100%" y2="0%">
            <stop offset="0%" style="stop-color:#0088ee" />
            <stop offset="50%" style="stop-color:#0066cc" />
            <stop offset="100%" style="stop-color:#ff6b35" />
        </linearGradient>
    </defs>
    <g transform="translate(5, 5) scale(0.65)">
        <path
            d="M82 52c9.5 0 17-7.5 17-17 0-8.5-6-15.5-14-17C83.5 10 77 5 69 5c-6 0-11.5 3-14.5 7.5C52.5 10.5 49 9 45 9c-8 0-14.5 6-15 13.5C21 24 14 32 14 42c0 10.5 8.5 19 19 19h49z"
            fill="url(#cloudH)" />
        <path d="M50 15L35 45h10l-5 18 20-25h-12l12-23z" fill="url(#blazeH)" />
    </g>
    <text x="78" y="32" font-family="Plus Jakarta Sans, sans-serif" font-weight="700" font-size="22"
        letter-spacing="1" fill="url(#textH)">CLOUDBLAZE</text>
    <text x="78" y="48" font-family="Plus Jakarta Sans, sans-serif" font-weight="500" font-size="8"
        letter-spacing="2" fill="#8b95a5">TECH SOLUTIONS</text>
</svg>
